<mxfile host="app.diagrams.net" agent="Mozilla/5.0 (Windows NT 10.0; Win64; x64) AppleWebKit/537.36 (KHTML, like Gecko) Chrome/128.0.0.0 Safari/537.36 Edg/128.0.0.0" version="24.7.17">
  <diagram name="Page-1" id="tiigiWsw-sh9O9fSEu40">
    <mxGraphModel dx="1106" dy="601" grid="1" gridSize="10" guides="1" tooltips="1" connect="1" arrows="1" fold="1" page="1" pageScale="1" pageWidth="827" pageHeight="1169" math="0" shadow="0">
      <root>
        <mxCell id="0" />
        <mxCell id="1" parent="0" />
        <mxCell id="OeBx3CEoDruNxCVU-E6a-1" value="User" style="rounded=0;whiteSpace=wrap;html=1;" vertex="1" parent="1">
          <mxGeometry x="390" y="260" width="120" height="60" as="geometry" />
        </mxCell>
        <mxCell id="OeBx3CEoDruNxCVU-E6a-2" value="Videos_Uploaded" style="ellipse;whiteSpace=wrap;html=1;" vertex="1" parent="1">
          <mxGeometry x="270" y="350" width="110" height="40" as="geometry" />
        </mxCell>
        <mxCell id="OeBx3CEoDruNxCVU-E6a-3" value="User Id" style="ellipse;whiteSpace=wrap;html=1;" vertex="1" parent="1">
          <mxGeometry x="280" y="180" width="70" height="40" as="geometry" />
        </mxCell>
        <mxCell id="OeBx3CEoDruNxCVU-E6a-4" value="User Name" style="ellipse;whiteSpace=wrap;html=1;" vertex="1" parent="1">
          <mxGeometry x="280" y="230" width="70" height="40" as="geometry" />
        </mxCell>
        <mxCell id="OeBx3CEoDruNxCVU-E6a-5" value="Email" style="ellipse;whiteSpace=wrap;html=1;" vertex="1" parent="1">
          <mxGeometry x="270" y="280" width="70" height="40" as="geometry" />
        </mxCell>
        <mxCell id="OeBx3CEoDruNxCVU-E6a-6" value="" style="endArrow=classic;html=1;rounded=0;exitX=1;exitY=0;exitDx=0;exitDy=0;entryX=0;entryY=1;entryDx=0;entryDy=0;" edge="1" parent="1" source="OeBx3CEoDruNxCVU-E6a-2" target="OeBx3CEoDruNxCVU-E6a-1">
          <mxGeometry width="50" height="50" relative="1" as="geometry">
            <mxPoint x="390" y="340" as="sourcePoint" />
            <mxPoint x="450" y="320" as="targetPoint" />
          </mxGeometry>
        </mxCell>
        <mxCell id="OeBx3CEoDruNxCVU-E6a-7" value="" style="endArrow=classic;html=1;rounded=0;exitX=1;exitY=0.5;exitDx=0;exitDy=0;entryX=0;entryY=0.5;entryDx=0;entryDy=0;" edge="1" parent="1" source="OeBx3CEoDruNxCVU-E6a-5" target="OeBx3CEoDruNxCVU-E6a-1">
          <mxGeometry width="50" height="50" relative="1" as="geometry">
            <mxPoint x="350" y="380" as="sourcePoint" />
            <mxPoint x="420" y="350" as="targetPoint" />
          </mxGeometry>
        </mxCell>
        <mxCell id="OeBx3CEoDruNxCVU-E6a-8" value="" style="endArrow=classic;html=1;rounded=0;exitX=1;exitY=0.5;exitDx=0;exitDy=0;entryX=0.25;entryY=0;entryDx=0;entryDy=0;" edge="1" parent="1" source="OeBx3CEoDruNxCVU-E6a-4" target="OeBx3CEoDruNxCVU-E6a-1">
          <mxGeometry width="50" height="50" relative="1" as="geometry">
            <mxPoint x="360" y="390" as="sourcePoint" />
            <mxPoint x="430" y="360" as="targetPoint" />
          </mxGeometry>
        </mxCell>
        <mxCell id="OeBx3CEoDruNxCVU-E6a-9" value="" style="endArrow=classic;html=1;rounded=0;exitX=1;exitY=0.5;exitDx=0;exitDy=0;entryX=0.5;entryY=0;entryDx=0;entryDy=0;" edge="1" parent="1" source="OeBx3CEoDruNxCVU-E6a-3" target="OeBx3CEoDruNxCVU-E6a-1">
          <mxGeometry width="50" height="50" relative="1" as="geometry">
            <mxPoint x="370" y="400" as="sourcePoint" />
            <mxPoint x="440" y="370" as="targetPoint" />
          </mxGeometry>
        </mxCell>
        <mxCell id="OeBx3CEoDruNxCVU-E6a-11" value="Upload" style="rhombus;whiteSpace=wrap;html=1;" vertex="1" parent="1">
          <mxGeometry x="570" y="250" width="80" height="80" as="geometry" />
        </mxCell>
        <mxCell id="OeBx3CEoDruNxCVU-E6a-13" value="Video" style="rounded=0;whiteSpace=wrap;html=1;" vertex="1" parent="1">
          <mxGeometry x="690" y="260" width="120" height="60" as="geometry" />
        </mxCell>
        <mxCell id="OeBx3CEoDruNxCVU-E6a-14" value="" style="endArrow=classic;html=1;rounded=0;entryX=0;entryY=0.5;entryDx=0;entryDy=0;exitX=1;exitY=0.5;exitDx=0;exitDy=0;" edge="1" parent="1" source="OeBx3CEoDruNxCVU-E6a-11" target="OeBx3CEoDruNxCVU-E6a-13">
          <mxGeometry width="50" height="50" relative="1" as="geometry">
            <mxPoint x="660" y="340" as="sourcePoint" />
            <mxPoint x="710" y="290" as="targetPoint" />
          </mxGeometry>
        </mxCell>
        <mxCell id="OeBx3CEoDruNxCVU-E6a-16" value="Length" style="ellipse;whiteSpace=wrap;html=1;" vertex="1" parent="1">
          <mxGeometry x="620" y="140" width="70" height="40" as="geometry" />
        </mxCell>
        <mxCell id="OeBx3CEoDruNxCVU-E6a-17" value="Title" style="ellipse;whiteSpace=wrap;html=1;" vertex="1" parent="1">
          <mxGeometry x="640" y="360" width="70" height="40" as="geometry" />
        </mxCell>
        <mxCell id="OeBx3CEoDruNxCVU-E6a-18" value="Video_URL" style="ellipse;whiteSpace=wrap;html=1;" vertex="1" parent="1">
          <mxGeometry x="780" y="130" width="70" height="40" as="geometry" />
        </mxCell>
        <mxCell id="OeBx3CEoDruNxCVU-E6a-19" value="Size" style="ellipse;whiteSpace=wrap;html=1;" vertex="1" parent="1">
          <mxGeometry x="700" y="130" width="70" height="40" as="geometry" />
        </mxCell>
        <mxCell id="OeBx3CEoDruNxCVU-E6a-24" value="" style="endArrow=classic;html=1;rounded=0;entryX=0.25;entryY=0;entryDx=0;entryDy=0;exitX=0.5;exitY=1;exitDx=0;exitDy=0;" edge="1" parent="1" source="OeBx3CEoDruNxCVU-E6a-16" target="OeBx3CEoDruNxCVU-E6a-13">
          <mxGeometry width="50" height="50" relative="1" as="geometry">
            <mxPoint x="660" y="340" as="sourcePoint" />
            <mxPoint x="710" y="290" as="targetPoint" />
          </mxGeometry>
        </mxCell>
        <mxCell id="OeBx3CEoDruNxCVU-E6a-25" value="" style="endArrow=classic;html=1;rounded=0;entryX=0.5;entryY=0;entryDx=0;entryDy=0;exitX=0.5;exitY=1;exitDx=0;exitDy=0;" edge="1" parent="1" source="OeBx3CEoDruNxCVU-E6a-19" target="OeBx3CEoDruNxCVU-E6a-13">
          <mxGeometry width="50" height="50" relative="1" as="geometry">
            <mxPoint x="655" y="220" as="sourcePoint" />
            <mxPoint x="730" y="270" as="targetPoint" />
          </mxGeometry>
        </mxCell>
        <mxCell id="OeBx3CEoDruNxCVU-E6a-26" value="" style="endArrow=classic;html=1;rounded=0;entryX=0.567;entryY=-0.017;entryDx=0;entryDy=0;exitX=0.5;exitY=1;exitDx=0;exitDy=0;entryPerimeter=0;" edge="1" parent="1" source="OeBx3CEoDruNxCVU-E6a-18" target="OeBx3CEoDruNxCVU-E6a-13">
          <mxGeometry width="50" height="50" relative="1" as="geometry">
            <mxPoint x="735" y="200" as="sourcePoint" />
            <mxPoint x="760" y="270" as="targetPoint" />
          </mxGeometry>
        </mxCell>
        <mxCell id="OeBx3CEoDruNxCVU-E6a-27" value="" style="endArrow=classic;html=1;rounded=0;exitX=0.5;exitY=0;exitDx=0;exitDy=0;entryX=0.25;entryY=1;entryDx=0;entryDy=0;" edge="1" parent="1" source="OeBx3CEoDruNxCVU-E6a-17" target="OeBx3CEoDruNxCVU-E6a-13">
          <mxGeometry width="50" height="50" relative="1" as="geometry">
            <mxPoint x="660" y="340" as="sourcePoint" />
            <mxPoint x="710" y="290" as="targetPoint" />
          </mxGeometry>
        </mxCell>
        <mxCell id="OeBx3CEoDruNxCVU-E6a-33" value="Creates" style="rhombus;whiteSpace=wrap;html=1;" vertex="1" parent="1">
          <mxGeometry x="710" y="380" width="80" height="80" as="geometry" />
        </mxCell>
        <mxCell id="OeBx3CEoDruNxCVU-E6a-34" value="" style="endArrow=classic;html=1;rounded=0;exitX=0.5;exitY=0;exitDx=0;exitDy=0;entryX=0.5;entryY=1;entryDx=0;entryDy=0;" edge="1" parent="1" source="OeBx3CEoDruNxCVU-E6a-33" target="OeBx3CEoDruNxCVU-E6a-13">
          <mxGeometry width="50" height="50" relative="1" as="geometry">
            <mxPoint x="660" y="340" as="sourcePoint" />
            <mxPoint x="1050" y="320" as="targetPoint" />
          </mxGeometry>
        </mxCell>
        <mxCell id="OeBx3CEoDruNxCVU-E6a-35" value="URL" style="ellipse;whiteSpace=wrap;html=1;" vertex="1" parent="1">
          <mxGeometry x="960" y="150" width="70" height="40" as="geometry" />
        </mxCell>
        <mxCell id="OeBx3CEoDruNxCVU-E6a-36" value="Transcription" style="ellipse;whiteSpace=wrap;html=1;" vertex="1" parent="1">
          <mxGeometry x="860" y="130" width="90" height="40" as="geometry" />
        </mxCell>
        <mxCell id="OeBx3CEoDruNxCVU-E6a-38" value="" style="endArrow=classic;html=1;rounded=0;entryX=0.95;entryY=0.017;entryDx=0;entryDy=0;exitX=0;exitY=0.5;exitDx=0;exitDy=0;entryPerimeter=0;" edge="1" parent="1" source="OeBx3CEoDruNxCVU-E6a-35" target="OeBx3CEoDruNxCVU-E6a-13">
          <mxGeometry width="50" height="50" relative="1" as="geometry">
            <mxPoint x="835" y="210" as="sourcePoint" />
            <mxPoint x="1020" y="260" as="targetPoint" />
          </mxGeometry>
        </mxCell>
        <mxCell id="OeBx3CEoDruNxCVU-E6a-39" value="" style="endArrow=classic;html=1;rounded=0;entryX=0.75;entryY=0;entryDx=0;entryDy=0;exitX=0.5;exitY=1;exitDx=0;exitDy=0;" edge="1" parent="1" source="OeBx3CEoDruNxCVU-E6a-36" target="OeBx3CEoDruNxCVU-E6a-13">
          <mxGeometry width="50" height="50" relative="1" as="geometry">
            <mxPoint x="985" y="230" as="sourcePoint" />
            <mxPoint x="1030" y="270" as="targetPoint" />
          </mxGeometry>
        </mxCell>
        <mxCell id="OeBx3CEoDruNxCVU-E6a-41" value="" style="endArrow=classic;html=1;rounded=0;exitX=0.5;exitY=1;exitDx=0;exitDy=0;" edge="1" parent="1" source="OeBx3CEoDruNxCVU-E6a-33" target="OeBx3CEoDruNxCVU-E6a-42">
          <mxGeometry width="50" height="50" relative="1" as="geometry">
            <mxPoint x="660" y="470" as="sourcePoint" />
            <mxPoint x="750" y="540" as="targetPoint" />
          </mxGeometry>
        </mxCell>
        <mxCell id="OeBx3CEoDruNxCVU-E6a-42" value="Question" style="rounded=0;whiteSpace=wrap;html=1;" vertex="1" parent="1">
          <mxGeometry x="690" y="520" width="120" height="60" as="geometry" />
        </mxCell>
        <mxCell id="OeBx3CEoDruNxCVU-E6a-44" value="User&#39;s_Answer" style="ellipse;whiteSpace=wrap;html=1;" vertex="1" parent="1">
          <mxGeometry x="847.5" y="448" width="110" height="40" as="geometry" />
        </mxCell>
        <mxCell id="OeBx3CEoDruNxCVU-E6a-45" value="Type" style="ellipse;whiteSpace=wrap;html=1;" vertex="1" parent="1">
          <mxGeometry x="880" y="500" width="70" height="40" as="geometry" />
        </mxCell>
        <mxCell id="OeBx3CEoDruNxCVU-E6a-48" value="" style="endArrow=classic;html=1;rounded=0;entryX=1;entryY=0.5;entryDx=0;entryDy=0;exitX=0;exitY=1;exitDx=0;exitDy=0;" edge="1" parent="1" source="OeBx3CEoDruNxCVU-E6a-44" target="OeBx3CEoDruNxCVU-E6a-42">
          <mxGeometry width="50" height="50" relative="1" as="geometry">
            <mxPoint x="850" y="490" as="sourcePoint" />
            <mxPoint x="840" y="420" as="targetPoint" />
          </mxGeometry>
        </mxCell>
        <mxCell id="OeBx3CEoDruNxCVU-E6a-49" value="" style="endArrow=classic;html=1;rounded=0;entryX=1;entryY=0.617;entryDx=0;entryDy=0;entryPerimeter=0;exitX=0;exitY=0.5;exitDx=0;exitDy=0;" edge="1" parent="1" source="OeBx3CEoDruNxCVU-E6a-45" target="OeBx3CEoDruNxCVU-E6a-42">
          <mxGeometry width="50" height="50" relative="1" as="geometry">
            <mxPoint x="1170" y="560" as="sourcePoint" />
            <mxPoint x="1120" y="565" as="targetPoint" />
          </mxGeometry>
        </mxCell>
        <mxCell id="OeBx3CEoDruNxCVU-E6a-51" value="Summary" style="ellipse;whiteSpace=wrap;html=1;" vertex="1" parent="1">
          <mxGeometry x="480" y="200" width="90" height="40" as="geometry" />
        </mxCell>
        <mxCell id="OeBx3CEoDruNxCVU-E6a-52" value="" style="endArrow=classic;html=1;rounded=0;entryX=0;entryY=0;entryDx=0;entryDy=0;exitX=1;exitY=1;exitDx=0;exitDy=0;" edge="1" parent="1" source="OeBx3CEoDruNxCVU-E6a-51" target="OeBx3CEoDruNxCVU-E6a-13">
          <mxGeometry width="50" height="50" relative="1" as="geometry">
            <mxPoint x="1155" y="240" as="sourcePoint" />
            <mxPoint x="1110" y="290" as="targetPoint" />
          </mxGeometry>
        </mxCell>
        <mxCell id="OeBx3CEoDruNxCVU-E6a-55" value="Thumbnail" style="ellipse;whiteSpace=wrap;html=1;" vertex="1" parent="1">
          <mxGeometry x="520" y="150" width="90" height="40" as="geometry" />
        </mxCell>
        <mxCell id="OeBx3CEoDruNxCVU-E6a-56" value="" style="endArrow=classic;html=1;rounded=0;entryX=0.083;entryY=-0.05;entryDx=0;entryDy=0;entryPerimeter=0;" edge="1" parent="1" source="OeBx3CEoDruNxCVU-E6a-55" target="OeBx3CEoDruNxCVU-E6a-13">
          <mxGeometry width="50" height="50" relative="1" as="geometry">
            <mxPoint x="930" y="270" as="sourcePoint" />
            <mxPoint x="820" y="300" as="targetPoint" />
          </mxGeometry>
        </mxCell>
        <mxCell id="OeBx3CEoDruNxCVU-E6a-57" value="Assessment" style="rounded=0;whiteSpace=wrap;html=1;" vertex="1" parent="1">
          <mxGeometry x="410" y="520" width="120" height="60" as="geometry" />
        </mxCell>
        <mxCell id="OeBx3CEoDruNxCVU-E6a-58" value="Contains" style="rhombus;whiteSpace=wrap;html=1;" vertex="1" parent="1">
          <mxGeometry x="570" y="510" width="80" height="80" as="geometry" />
        </mxCell>
        <mxCell id="OeBx3CEoDruNxCVU-E6a-60" value="" style="endArrow=classic;html=1;rounded=0;exitX=0;exitY=0.5;exitDx=0;exitDy=0;entryX=1;entryY=0.5;entryDx=0;entryDy=0;" edge="1" parent="1" source="OeBx3CEoDruNxCVU-E6a-58" target="OeBx3CEoDruNxCVU-E6a-57">
          <mxGeometry width="50" height="50" relative="1" as="geometry">
            <mxPoint x="380" y="660" as="sourcePoint" />
            <mxPoint x="510" y="540" as="targetPoint" />
          </mxGeometry>
        </mxCell>
        <mxCell id="OeBx3CEoDruNxCVU-E6a-61" value="Type" style="ellipse;whiteSpace=wrap;html=1;" vertex="1" parent="1">
          <mxGeometry x="260" y="520" width="70" height="40" as="geometry" />
        </mxCell>
        <mxCell id="OeBx3CEoDruNxCVU-E6a-62" value="" style="endArrow=classic;html=1;rounded=0;entryX=0;entryY=0.5;entryDx=0;entryDy=0;exitX=1;exitY=0.5;exitDx=0;exitDy=0;" edge="1" parent="1" source="OeBx3CEoDruNxCVU-E6a-61" target="OeBx3CEoDruNxCVU-E6a-57">
          <mxGeometry width="50" height="50" relative="1" as="geometry">
            <mxPoint x="890" y="575" as="sourcePoint" />
            <mxPoint x="820" y="567" as="targetPoint" />
          </mxGeometry>
        </mxCell>
        <mxCell id="OeBx3CEoDruNxCVU-E6a-71" value="" style="edgeStyle=orthogonalEdgeStyle;rounded=0;orthogonalLoop=1;jettySize=auto;html=1;entryX=0;entryY=0.5;entryDx=0;entryDy=0;" edge="1" parent="1" source="OeBx3CEoDruNxCVU-E6a-67" target="OeBx3CEoDruNxCVU-E6a-70">
          <mxGeometry relative="1" as="geometry" />
        </mxCell>
        <mxCell id="OeBx3CEoDruNxCVU-E6a-67" value="Contains" style="rhombus;whiteSpace=wrap;html=1;" vertex="1" parent="1">
          <mxGeometry x="877.5" y="250" width="80" height="80" as="geometry" />
        </mxCell>
        <mxCell id="OeBx3CEoDruNxCVU-E6a-69" value="" style="endArrow=classic;html=1;rounded=0;exitX=0;exitY=0.5;exitDx=0;exitDy=0;entryX=1;entryY=0.5;entryDx=0;entryDy=0;" edge="1" parent="1" source="OeBx3CEoDruNxCVU-E6a-67" target="OeBx3CEoDruNxCVU-E6a-13">
          <mxGeometry width="50" height="50" relative="1" as="geometry">
            <mxPoint x="687.5" y="410" as="sourcePoint" />
            <mxPoint x="812.5" y="300" as="targetPoint" />
          </mxGeometry>
        </mxCell>
        <mxCell id="OeBx3CEoDruNxCVU-E6a-70" value="Key Concept" style="whiteSpace=wrap;html=1;" vertex="1" parent="1">
          <mxGeometry x="1017.5" y="260" width="120" height="60" as="geometry" />
        </mxCell>
        <mxCell id="OeBx3CEoDruNxCVU-E6a-72" value="1" style="text;html=1;align=center;verticalAlign=middle;resizable=0;points=[];autosize=1;strokeColor=none;fillColor=none;" vertex="1" parent="1">
          <mxGeometry x="510" y="260" width="30" height="30" as="geometry" />
        </mxCell>
        <mxCell id="OeBx3CEoDruNxCVU-E6a-73" value="M" style="text;html=1;align=center;verticalAlign=middle;resizable=0;points=[];autosize=1;strokeColor=none;fillColor=none;" vertex="1" parent="1">
          <mxGeometry x="660" y="270" width="30" height="30" as="geometry" />
        </mxCell>
        <mxCell id="OeBx3CEoDruNxCVU-E6a-74" value="" style="endArrow=none;html=1;rounded=0;exitX=1;exitY=0.5;exitDx=0;exitDy=0;entryX=0;entryY=0.5;entryDx=0;entryDy=0;" edge="1" parent="1" source="OeBx3CEoDruNxCVU-E6a-1" target="OeBx3CEoDruNxCVU-E6a-11">
          <mxGeometry width="50" height="50" relative="1" as="geometry">
            <mxPoint x="730" y="470" as="sourcePoint" />
            <mxPoint x="780" y="420" as="targetPoint" />
          </mxGeometry>
        </mxCell>
        <mxCell id="OeBx3CEoDruNxCVU-E6a-75" value="1" style="text;html=1;align=center;verticalAlign=middle;resizable=0;points=[];autosize=1;strokeColor=none;fillColor=none;" vertex="1" parent="1">
          <mxGeometry x="815" y="268" width="30" height="30" as="geometry" />
        </mxCell>
        <mxCell id="OeBx3CEoDruNxCVU-E6a-76" value="M" style="text;html=1;align=center;verticalAlign=middle;resizable=0;points=[];autosize=1;strokeColor=none;fillColor=none;" vertex="1" parent="1">
          <mxGeometry x="985" y="268" width="30" height="30" as="geometry" />
        </mxCell>
        <mxCell id="OeBx3CEoDruNxCVU-E6a-77" value="M" style="text;html=1;align=center;verticalAlign=middle;resizable=0;points=[];autosize=1;strokeColor=none;fillColor=none;" vertex="1" parent="1">
          <mxGeometry x="745" y="488" width="30" height="30" as="geometry" />
        </mxCell>
        <mxCell id="OeBx3CEoDruNxCVU-E6a-78" value="1" style="text;html=1;align=center;verticalAlign=middle;resizable=0;points=[];autosize=1;strokeColor=none;fillColor=none;" vertex="1" parent="1">
          <mxGeometry x="745" y="318" width="30" height="30" as="geometry" />
        </mxCell>
        <mxCell id="OeBx3CEoDruNxCVU-E6a-79" value="Score" style="ellipse;whiteSpace=wrap;html=1;" vertex="1" parent="1">
          <mxGeometry x="270" y="580" width="70" height="40" as="geometry" />
        </mxCell>
        <mxCell id="OeBx3CEoDruNxCVU-E6a-80" value="" style="endArrow=classic;html=1;rounded=0;entryX=0;entryY=0.75;entryDx=0;entryDy=0;exitX=1;exitY=0.5;exitDx=0;exitDy=0;" edge="1" parent="1" source="OeBx3CEoDruNxCVU-E6a-79" target="OeBx3CEoDruNxCVU-E6a-57">
          <mxGeometry width="50" height="50" relative="1" as="geometry">
            <mxPoint x="340" y="550" as="sourcePoint" />
            <mxPoint x="420" y="560" as="targetPoint" />
          </mxGeometry>
        </mxCell>
        <mxCell id="OeBx3CEoDruNxCVU-E6a-81" value="1" style="text;html=1;align=center;verticalAlign=middle;resizable=0;points=[];autosize=1;strokeColor=none;fillColor=none;" vertex="1" parent="1">
          <mxGeometry x="665" y="518" width="30" height="30" as="geometry" />
        </mxCell>
        <mxCell id="OeBx3CEoDruNxCVU-E6a-82" value="1" style="text;html=1;align=center;verticalAlign=middle;resizable=0;points=[];autosize=1;strokeColor=none;fillColor=none;" vertex="1" parent="1">
          <mxGeometry x="525" y="518" width="30" height="30" as="geometry" />
        </mxCell>
        <mxCell id="OeBx3CEoDruNxCVU-E6a-83" value="" style="endArrow=none;html=1;rounded=0;exitX=1;exitY=0.5;exitDx=0;exitDy=0;entryX=0;entryY=0.5;entryDx=0;entryDy=0;" edge="1" parent="1" source="OeBx3CEoDruNxCVU-E6a-58" target="OeBx3CEoDruNxCVU-E6a-42">
          <mxGeometry width="50" height="50" relative="1" as="geometry">
            <mxPoint x="730" y="470" as="sourcePoint" />
            <mxPoint x="780" y="420" as="targetPoint" />
          </mxGeometry>
        </mxCell>
        <mxCell id="OeBx3CEoDruNxCVU-E6a-84" value="Assessment Id" style="ellipse;whiteSpace=wrap;html=1;" vertex="1" parent="1">
          <mxGeometry x="260" y="470" width="100" height="40" as="geometry" />
        </mxCell>
        <mxCell id="OeBx3CEoDruNxCVU-E6a-85" value="" style="endArrow=classic;html=1;rounded=0;entryX=0;entryY=0.25;entryDx=0;entryDy=0;exitX=0.99;exitY=0.7;exitDx=0;exitDy=0;exitPerimeter=0;" edge="1" parent="1" source="OeBx3CEoDruNxCVU-E6a-84" target="OeBx3CEoDruNxCVU-E6a-57">
          <mxGeometry width="50" height="50" relative="1" as="geometry">
            <mxPoint x="340" y="550" as="sourcePoint" />
            <mxPoint x="420" y="560" as="targetPoint" />
          </mxGeometry>
        </mxCell>
        <mxCell id="OeBx3CEoDruNxCVU-E6a-87" value="Question Id" style="ellipse;whiteSpace=wrap;html=1;" vertex="1" parent="1">
          <mxGeometry x="867.5" y="600" width="100" height="40" as="geometry" />
        </mxCell>
        <mxCell id="OeBx3CEoDruNxCVU-E6a-88" value="" style="endArrow=classic;html=1;rounded=0;entryX=1.008;entryY=0.867;entryDx=0;entryDy=0;entryPerimeter=0;exitX=0.03;exitY=0.35;exitDx=0;exitDy=0;exitPerimeter=0;" edge="1" parent="1" source="OeBx3CEoDruNxCVU-E6a-87" target="OeBx3CEoDruNxCVU-E6a-42">
          <mxGeometry width="50" height="50" relative="1" as="geometry">
            <mxPoint x="890" y="575" as="sourcePoint" />
            <mxPoint x="820" y="567" as="targetPoint" />
          </mxGeometry>
        </mxCell>
        <mxCell id="OeBx3CEoDruNxCVU-E6a-89" value="Question Text" style="ellipse;whiteSpace=wrap;html=1;" vertex="1" parent="1">
          <mxGeometry x="867.5" y="545" width="100" height="40" as="geometry" />
        </mxCell>
        <mxCell id="OeBx3CEoDruNxCVU-E6a-90" value="" style="endArrow=classic;html=1;rounded=0;entryX=1;entryY=0.75;entryDx=0;entryDy=0;exitX=0.03;exitY=0.35;exitDx=0;exitDy=0;exitPerimeter=0;" edge="1" parent="1" source="OeBx3CEoDruNxCVU-E6a-89" target="OeBx3CEoDruNxCVU-E6a-42">
          <mxGeometry width="50" height="50" relative="1" as="geometry">
            <mxPoint x="900" y="585" as="sourcePoint" />
            <mxPoint x="821" y="582" as="targetPoint" />
          </mxGeometry>
        </mxCell>
        <mxCell id="OeBx3CEoDruNxCVU-E6a-91" value="Concept Text" style="ellipse;whiteSpace=wrap;html=1;" vertex="1" parent="1">
          <mxGeometry x="1120" y="360" width="110" height="40" as="geometry" />
        </mxCell>
        <mxCell id="OeBx3CEoDruNxCVU-E6a-93" value="Concept Id" style="ellipse;whiteSpace=wrap;html=1;" vertex="1" parent="1">
          <mxGeometry x="1170" y="280" width="110" height="40" as="geometry" />
        </mxCell>
        <mxCell id="OeBx3CEoDruNxCVU-E6a-94" value="" style="endArrow=classic;html=1;rounded=0;entryX=0.75;entryY=1;entryDx=0;entryDy=0;exitX=0.5;exitY=0;exitDx=0;exitDy=0;" edge="1" parent="1" source="OeBx3CEoDruNxCVU-E6a-91" target="OeBx3CEoDruNxCVU-E6a-70">
          <mxGeometry width="50" height="50" relative="1" as="geometry">
            <mxPoint x="730" y="470" as="sourcePoint" />
            <mxPoint x="780" y="420" as="targetPoint" />
          </mxGeometry>
        </mxCell>
        <mxCell id="OeBx3CEoDruNxCVU-E6a-95" value="" style="endArrow=classic;html=1;rounded=0;entryX=1;entryY=0.5;entryDx=0;entryDy=0;exitX=0;exitY=0.5;exitDx=0;exitDy=0;" edge="1" parent="1" source="OeBx3CEoDruNxCVU-E6a-93" target="OeBx3CEoDruNxCVU-E6a-70">
          <mxGeometry width="50" height="50" relative="1" as="geometry">
            <mxPoint x="1185" y="370" as="sourcePoint" />
            <mxPoint x="1118" y="330" as="targetPoint" />
          </mxGeometry>
        </mxCell>
        <mxCell id="OeBx3CEoDruNxCVU-E6a-96" value="Password" style="ellipse;whiteSpace=wrap;html=1;" vertex="1" parent="1">
          <mxGeometry x="344" y="160" width="70" height="40" as="geometry" />
        </mxCell>
        <mxCell id="OeBx3CEoDruNxCVU-E6a-97" value="" style="endArrow=classic;html=1;rounded=0;exitX=0.5;exitY=1;exitDx=0;exitDy=0;entryX=0.75;entryY=0;entryDx=0;entryDy=0;" edge="1" parent="1" source="OeBx3CEoDruNxCVU-E6a-96" target="OeBx3CEoDruNxCVU-E6a-1">
          <mxGeometry width="50" height="50" relative="1" as="geometry">
            <mxPoint x="360" y="210" as="sourcePoint" />
            <mxPoint x="460" y="270" as="targetPoint" />
          </mxGeometry>
        </mxCell>
        <mxCell id="OeBx3CEoDruNxCVU-E6a-98" value="Account Created&amp;nbsp;" style="ellipse;whiteSpace=wrap;html=1;" vertex="1" parent="1">
          <mxGeometry x="370" y="370" width="110" height="40" as="geometry" />
        </mxCell>
        <mxCell id="OeBx3CEoDruNxCVU-E6a-99" value="" style="endArrow=classic;html=1;rounded=0;exitX=0.5;exitY=0;exitDx=0;exitDy=0;entryX=0.25;entryY=1;entryDx=0;entryDy=0;" edge="1" parent="1" source="OeBx3CEoDruNxCVU-E6a-98" target="OeBx3CEoDruNxCVU-E6a-1">
          <mxGeometry width="50" height="50" relative="1" as="geometry">
            <mxPoint x="390" y="380" as="sourcePoint" />
            <mxPoint x="460" y="330" as="targetPoint" />
          </mxGeometry>
        </mxCell>
        <mxCell id="OeBx3CEoDruNxCVU-E6a-100" value="Assessment Date" style="ellipse;whiteSpace=wrap;html=1;" vertex="1" parent="1">
          <mxGeometry x="320" y="630" width="100" height="40" as="geometry" />
        </mxCell>
        <mxCell id="OeBx3CEoDruNxCVU-E6a-101" value="" style="endArrow=classic;html=1;rounded=0;entryX=0.25;entryY=1;entryDx=0;entryDy=0;exitX=0.5;exitY=0;exitDx=0;exitDy=0;" edge="1" parent="1" source="OeBx3CEoDruNxCVU-E6a-100" target="OeBx3CEoDruNxCVU-E6a-57">
          <mxGeometry width="50" height="50" relative="1" as="geometry">
            <mxPoint x="350" y="610" as="sourcePoint" />
            <mxPoint x="420" y="575" as="targetPoint" />
          </mxGeometry>
        </mxCell>
      </root>
    </mxGraphModel>
  </diagram>
</mxfile>
